# File created by Blade
# Date/Time:  Wed Jan 21 17:16:23 2015
# Frame Rate: 120.000 fps
#------------------------------------------------------
:FULLY-SPECIFIED
:DEGREES
959
root 21.249170 6.372261 -16.305193 -173.206575 -11.931470 -218.322709
Spine 35.223730 -12.693024 -36.961002
Head 22.574637 15.755022 -7.618791
LeftShoulder 2.561388 -22.705666 -6.549141
LeftArm 2.885349 37.163379 -57.290933
LeftForeArm 34.086706 -0.000000 69.669884
LeftHand -7.213903 -0.000000 -8.550596
LeftHandThumb1 -26.253704 0.000000 33.147579
RightShoulder -4.215883 -15.872445 3.403187
RightArm 13.559302 -17.286202 63.208873
RightForeArm -41.475915 -0.000000 54.905857
RightHand -10.011091 0.000000 -1.523761
RightHandThumb1 -24.326973 -0.000000 -32.862282
LeftUpLeg 7.507726 30.823598 30.255936
LeftLeg 134.182513 -0.000000 -0.000000
LeftFoot 45.224018 5.508719 23.386691
LeftToeBase 2.633841 -0.000000 -0.000000
RightUpLeg -122.254046 -8.156845 47.800484
RightLeg 141.943860 -0.000000 -0.000000
RightFoot 37.682341 -25.474936 11.911025
RightToeBase 37.800237 -0.000000 -0.000000
960
root 21.239768 6.372713 -16.309300 -173.087233 -11.923507 -218.312860
Spine 35.279610 -12.394949 -36.793305
Head 22.779546 15.533637 -7.609720
LeftShoulder 2.785284 -22.945805 -6.458167
LeftArm 2.911226 37.699269 -57.353860
LeftForeArm 34.123665 -0.000000 69.751409
LeftHand -7.307423 -0.000000 -8.396332
LeftHandThumb1 -26.253704 0.000000 33.147579
RightShoulder -4.296785 -15.888568 3.394397
RightArm 13.523105 -17.073020 63.368275
RightForeArm -40.852079 -0.000000 55.272947
RightHand -10.316644 -0.000000 -1.375806
RightHandThumb1 -24.326973 -0.000000 -32.862282
LeftUpLeg 7.413668 30.799092 30.173472
LeftLeg 134.103485 -0.000000 -0.000000
LeftFoot 45.250678 5.326349 23.662681
LeftToeBase 2.079206 -0.000000 -0.000000
RightUpLeg -122.288752 -8.106361 47.682171
RightLeg 142.016133 -0.000000 -0.000000
RightFoot 37.747843 -25.286210 11.900778
RightToeBase 37.382487 -0.000000 -0.000000
961
root 21.231551 6.372270 -16.313207 -172.962784 -11.906395 -218.286691
Spine 35.317304 -12.172410 -36.665328
Head 22.982897 15.393064 -7.612718
LeftShoulder 2.931157 -23.497442 -6.339752
LeftArm 2.530347 38.247896 -57.741704
LeftForeArm 34.208887 -0.000000 69.812659
LeftHand -7.339882 0.000000 -8.407636
LeftHandThumb1 -26.253704 0.000000 33.147579
RightShoulder -4.290650 -15.950237 3.400104
RightArm 13.513292 -16.824799 63.507326
RightForeArm -40.182303 0.000000 55.486632
RightHand -10.469984 0.000000 -1.392321
RightHandThumb1 -24.326973 -0.000000 -32.862282
LeftUpLeg 7.340833 30.798149 30.144062
LeftLeg 134.005336 -0.000000 -0.000000
LeftFoot 45.242281 5.421407 23.750276
LeftToeBase 2.029512 -0.000000 -0.000000
RightUpLeg -122.298409 -8.013068 47.636616
RightLeg 142.060036 -0.000000 -0.000000
RightFoot 37.736925 -25.192142 11.831540
RightToeBase 37.027783 -0.000000 -0.000000
962
root 21.225270 6.371737 -16.313365 -172.827362 -11.889561 -218.286001
Spine 35.353920 -11.953783 -36.555323
Head 23.151525 15.328578 -7.612962
LeftShoulder 2.984141 -23.630549 -6.242175
LeftArm 2.729806 38.676228 -57.707982
LeftForeArm 34.037439 -0.000000 69.862402
LeftHand -7.384035 0.000000 -8.321457
LeftHandThumb1 -26.253704 0.000000 33.147579
RightShoulder -4.328387 -15.974240 3.354762
RightArm 13.538165 -16.622548 63.724524
RightForeArm -39.646172 0.000000 55.505955
RightHand -10.755932 -0.000000 -1.476154
RightHandThumb1 -24.326973 -0.000000 -32.862282
LeftUpLeg 7.275569 30.812388 30.093706
LeftLeg 133.944960 -0.000000 -0.000000
LeftFoot 45.243324 5.199635 24.075952
LeftToeBase 1.351301 -0.000000 -0.000000
RightUpLeg -122.340396 -7.940258 47.522311
RightLeg 142.131661 -0.000000 -0.000000
RightFoot 37.685738 -24.914633 11.806469
RightToeBase 36.566864 -0.000000 -0.000000
